<?xml version="1.0" standalone="no"?>
<!DOCTYPE svg PUBLIC "-//W3C//DTD SVG 20010904//EN"
 "http://www.w3.org/TR/2001/REC-SVG-20010904/DTD/svg10.dtd">
<svg version="1.0" xmlns="http://www.w3.org/2000/svg"
 width="512.000000pt" height="512.000000pt" viewBox="0 0 512.000000 512.000000"
 preserveAspectRatio="xMidYMid meet">

<g transform="translate(0.000000,512.000000) scale(0.100000,-0.100000)"
fill="#000000" stroke="none">
<path d="M2289 4844 c-278 -243 -267 -233 -275 -270 -9 -44 35 -94 82 -94 36
0 48 9 274 209 l85 75 5 -269 c3 -187 9 -277 17 -291 16 -28 67 -46 96 -35 56
22 56 25 59 324 l3 276 120 -105 c180 -159 214 -184 244 -184 59 0 100 58 78
110 -7 18 -106 112 -252 240 -216 189 -244 210 -276 210 -32 0 -58 -19 -260
-196z"/>
<path d="M2130 3875 c-248 -49 -449 -208 -554 -437 -68 -148 -67 -134 -64
-918 l3 -705 28 -80 c66 -187 206 -351 373 -438 159 -81 199 -87 635 -87 432
0 464 4 624 85 196 98 338 278 395 499 19 76 20 109 20 750 0 730 -1 739 -58
874 -100 238 -318 413 -572 458 -103 18 -737 18 -830 -1z m890 -187 c148 -54
270 -161 336 -293 65 -132 64 -112 64 -844 0 -736 1 -719 -67 -855 -48 -95
-162 -208 -256 -254 -124 -60 -144 -62 -547 -62 -339 0 -371 2 -440 21 -104
28 -172 70 -261 158 -57 58 -85 94 -111 151 -64 135 -63 119 -63 845 0 612 1
664 18 720 51 166 166 307 307 378 125 63 158 66 575 64 l370 -2 75 -27z"/>
<path d="M2493 3246 l-28 -24 -3 -195 c-4 -232 3 -272 53 -293 38 -15 59 -11
93 19 22 20 22 25 22 244 l0 224 -25 24 c-31 32 -75 32 -112 1z"/>
<path d="M2493 906 l-28 -24 -5 -273 -5 -273 -125 110 c-69 60 -142 124 -163
142 -45 38 -85 42 -121 10 -24 -22 -30 -39 -27 -85 1 -15 74 -86 240 -231 132
-116 249 -216 261 -222 12 -6 32 -9 45 -6 21 5 427 352 488 417 53 57 21 149
-52 149 -32 0 -41 -7 -266 -204 l-100 -88 -5 282 c-5 281 -5 282 -29 301 -32
26 -74 24 -108 -5z"/>
</g>
</svg>
